<?xml version="1.0" encoding="UTF-8"?>
<svg id="Layer_2" data-name="Layer 2" xmlns="http://www.w3.org/2000/svg" viewBox="0 0 806.5 414.27">
  <defs>
    <style>
      .cls-1 {
        fill: #585858;
      }
    </style>
  </defs>
  <g id="Layer_1-2" data-name="Layer 1">
    <path class="cls-1" d="m804.89,414.27c-10.54-5.8-20.16-11.32-29.99-16.44-9.28-4.84-18.59-9.71-28.26-13.66-3.44-1.41-8.82-1.63-11.81.14-8.05,4.76-16.15,4.8-24.52,2.62-8.49-2.21-16.5-1.89-24.85,1.14-5.67,2.06-11.96,2.89-18.03,3.26-10.81.66-20.41,4.16-29.16,10.33-.94.66-1.85,1.44-2.61,2.3-4.76,5.47-8.48,6.58-14.58,2.66-5.69-3.66-10.68-8.39-16.02-12.6-1.69-1.34-3.58-2.43-5.27-3.77-2.26-1.79-3.92-1.44-6.01.58-4.24,4.09-8.35,3.95-12.71-.07-1.46-1.35-2.75-2.89-4.03-4.41-4.25-5.07-7.08-5.31-12.06-.76-5.86,5.35-11.01,11.12-11.44,19.69-.16,3.11-2.78,3.43-3.97,1.58-1.41-2.2-1.42-5.32-1.92-8.06-.56-3.06-.02-6.88-1.68-9.03-2.42-3.15-6.05-1.02-9.04.57-10.87,5.77-12.39,5.4-21.93-2.63-4-3.37-8.42-6.58-13.18-8.64-5.59-2.41-9.86,1.01-10.23,7.03-.18,2.9,1.38,6.79-3.71,7.17-6.19.46-13.2-2.85-13.35-7.18-.36-10.44-7.22-15.46-15.09-19.98-3.03-1.74-5.89-3.77-8.95-5.43-5.74-3.1-11.32-3.72-17.36.02-6.98,4.32-15.8,2.06-20.11-4.77-2.04-3.24-4.49-3.13-7.22-1.77-4.64,2.31-8.74,1.84-13.72.07-7.1-2.53-14.83-3.32-22.3-4.79-12.06-2.37-14.32-5.06-14.1-17.46.08-4.59-1.71-7.34-6.19-8.96-5.72-2.08-11.18-1.98-16.39.86-6.45,3.51-13.31,4-20.34,3.43-6.09-.49-11.24-2.82-14.29-8.56-.93-1.76-2.19-3.36-3.02-5.16-2.82-6.09-7.33-10.2-13.78-12.11-3.68-1.09-5.64-3.22-5.08-7.31,4.31-31.4,3.62-63,4.06-94.57.41-29.59,1.26-59.18,1.96-88.77.25-10.47.59-20.94.98-31.4.12-3.16-.61-4.78-4.33-4.98-12.1-.66-24.16-1.85-36.25-2.63-27.18-1.76-54.37-3.43-81.55-5.07-28.69-1.73-57.39-3.4-86.09-5.06-24.04-1.39-48.08-2.7-72.1-4.27-1.22-.08-3.33-2.32-3.29-3.5.33-10.27,1.07-20.54,1.66-30.8.43-7.58.81-15.17,1.23-23.11,11.38.53,22.14.97,32.89,1.54,11.77.62,23.53,1.51,35.31,2,18.74.78,37.48,1.41,56.22,1.96,24.91.74,49.83,1.4,74.75,2,30.08.72,60.17,1.34,90.26,2.02,13.96.31,27.93.68,41.89.98,30.92.68,61.85,1.33,92.77,2,14.8.32,29.59.66,44.39.98,30.75.67,61.51,1.33,92.26,1.99,30.57.66,61.15,1.32,91.72,1.97,34.38.72,68.76,1.4,103.14,2.14,8.47.18,16.95.67,25.42.68,3.46,0,4.85,1.28,4.87,4.57.06,8.56-.33,17.16.34,25.68,1.66,21.14,3.46,42.27,5.85,63.33,2.35,20.76,5.69,41.41,8.25,62.14,4.69,38.04,3.06,76.25,2.79,114.43-.29,40.19-.52,80.38-.78,120.58,0,.65-.12,1.29-.33,3.3Z"/>
  </g>
</svg>