<svg xmlns="http://www.w3.org/2000/svg" viewBox="0 0 330.73 100.11"><defs><style>.cls-1{fill:#d50000;}.cls-2{fill:#ff1744;}.cls-3{fill:#212121;}.cls-4{fill:none;}</style></defs><g id="Layer_2" data-name="Layer 2"><g id="Layer_1-2" data-name="Layer 1"><polygon class="cls-1" points="297.35 50.25 326.63 17.88 302.66 17.88 281.2 41.43 275.36 48.11 275.36 71.69 284.22 63.46 306.26 95.54 330.73 95.54 297.35 50.25"/><polygon class="cls-2" points="275.18 48.32 275.17 0 255.22 14.7 255.23 95.55 275.18 95.54 275.18 71.86 275.36 71.69 275.36 48.11 275.18 48.32"/><polygon points="103.2 17.91 81.74 17.91 107.72 56.02 80.74 95.57 102.35 95.57 119.55 70.91 119.55 41.52 103.2 17.91"/><polygon class="cls-3" points="132.49 56.02 158.53 17.9 137.07 17.9 120 42.16 119.55 41.52 119.55 70.91 120.07 70.16 137.95 95.56 159.48 95.56 132.49 56.02"/><path d="M32.74,80.86a17.88,17.88,0,0,1-6-.86,8.36,8.36,0,0,1-4-2.83A13,13,0,0,1,20.64,72,39.59,39.59,0,0,1,20,64V17.92H0V63.86A50.57,50.57,0,0,0,2,79,28,28,0,0,0,7.55,89.3a21.16,21.16,0,0,0,8.61,5.92,31.6,31.6,0,0,0,11.05,1.86A23.81,23.81,0,0,0,33,96.39V80.85Z"/><path class="cls-3" d="M68.11,17.91h-20V72.39a14.8,14.8,0,0,1-5.67,6.21A18.32,18.32,0,0,1,33,80.85V96.39a23.32,23.32,0,0,0,6.4-2.61,30.09,30.09,0,0,0,9.51-9.12L50,95.57H68.12Z"/><path class="cls-4" d="M203.4,81a23.49,23.49,0,1,0,0-47c-.25,0-.49,0-.74,0V81C202.91,81,203.15,81,203.4,81Z"/><path class="cls-4" d="M179.92,57.54A23.47,23.47,0,0,0,202.66,81V34.1A23.47,23.47,0,0,0,179.92,57.54Z"/><path class="cls-2" d="M179.92,57.54A23.47,23.47,0,0,1,202.66,34.1V15a42.55,42.55,0,0,0,0,85.09V81A23.47,23.47,0,0,1,179.92,57.54Z"/><path class="cls-1" d="M203.4,15l-.74,0V34.1c.25,0,.49,0,.74,0a23.49,23.49,0,1,1,0,47c-.25,0-.49,0-.74,0v19.1l.74,0a42.57,42.57,0,1,0,0-85.13Z"/></g></g></svg>